<svg width="24" height="24" viewBox="0 0 24 24" fill="none" xmlns="http://www.w3.org/2000/svg">
<rect width="24" height="24" fill="white"/>
<path d="M17 10.25C17.2985 10.25 17.5684 10.4274 17.6875 10.7012L19.0371 13.8027L22.5576 14.0713C22.8629 14.0948 23.1238 14.3017 23.2158 14.5938C23.3078 14.886 23.2125 15.2052 22.9756 15.3994L20.3174 17.5752L21.127 20.8184C21.2 21.111 21.0909 21.4186 20.8496 21.5996C20.6083 21.7806 20.282 21.7995 20.0215 21.6475L17 19.8838L13.9785 21.6475C13.718 21.7995 13.3917 21.7806 13.1504 21.5996C12.9091 21.4186 12.8 21.111 12.873 20.8184L13.6816 17.5752L11.0244 15.3994C10.7875 15.2052 10.6922 14.886 10.7842 14.5938C10.8762 14.3017 11.1371 14.0948 11.4424 14.0713L14.9619 13.8027L16.3125 10.7012L16.3643 10.6025C16.4999 10.3855 16.739 10.25 17 10.25ZM16.1582 14.8154C16.0473 15.0701 15.8043 15.2425 15.5273 15.2637L13.4219 15.4238L15 16.7168C15.2243 16.9006 15.3232 17.1971 15.2529 17.4785L14.7588 19.4551L16.6221 18.3682L16.7119 18.3232C16.9269 18.2338 17.1736 18.2489 17.3779 18.3682L19.2402 19.4551L18.7471 17.4785C18.6768 17.1971 18.7757 16.9006 19 16.7168L20.5772 15.4238L18.4727 15.2637C18.1957 15.2425 17.9527 15.0701 17.8418 14.8154L17 12.8789L16.1582 14.8154Z" fill="black"/>
<path d="M21.75 12V7.75H11.5C11.3011 7.75 11.1104 7.67093 10.9697 7.53027L8.18945 4.75H2.25V19.25H11.5C11.9142 19.25 12.25 19.5858 12.25 20C12.25 20.4142 11.9142 20.75 11.5 20.75H1.5C1.08579 20.75 0.75 20.4142 0.75 20V4C0.75 3.58579 1.08579 3.25 1.5 3.25H8.5C8.69891 3.25 8.88962 3.32907 9.03027 3.46973L11.8105 6.25H22.5C22.9142 6.25 23.25 6.58579 23.25 7V12C23.25 12.4142 22.9142 12.75 22.5 12.75C22.0858 12.75 21.75 12.4142 21.75 12Z" fill="black"/>
</svg>
