<svg width="24" height="24" viewBox="0 0 24 24" fill="none" xmlns="http://www.w3.org/2000/svg">
<path d="M17 12.25C17.2985 12.25 17.5684 12.4274 17.6875 12.7012L19.0371 15.8027L22.5576 16.0713C22.8629 16.0948 23.1238 16.3017 23.2158 16.5938C23.3078 16.886 23.2125 17.2052 22.9756 17.3994L20.3174 19.5752L21.127 22.8184C21.2 23.111 21.0909 23.4186 20.8496 23.5996C20.6083 23.7806 20.282 23.7995 20.0215 23.6475L17 21.8838L13.9785 23.6475C13.718 23.7995 13.3917 23.7806 13.1504 23.5996C12.9091 23.4186 12.8 23.111 12.873 22.8184L13.6816 19.5752L11.0244 17.3994C10.7875 17.2052 10.6922 16.886 10.7842 16.5938C10.8762 16.3017 11.1371 16.0948 11.4424 16.0713L14.9619 15.8027L16.3125 12.7012L16.3643 12.6025C16.4999 12.3855 16.739 12.25 17 12.25ZM16.1582 16.8154C16.0473 17.0701 15.8043 17.2425 15.5273 17.2637L13.4219 17.4238L15 18.7168C15.2243 18.9006 15.3232 19.1971 15.2529 19.4785L14.7588 21.4551L16.6221 20.3682L16.7119 20.3232C16.9269 20.2338 17.1736 20.2489 17.3779 20.3682L19.2402 21.4551L18.7471 19.4785C18.6768 19.1971 18.7757 18.9006 19 18.7168L20.5772 17.4238L18.4727 17.2637C18.1957 17.2425 17.9527 17.0701 17.8418 16.8154L17 14.8789L16.1582 16.8154Z" fill="black"/>
<path d="M21.75 12V7.75H11.5C11.3011 7.75 11.1104 7.67093 10.9697 7.53027L8.18945 4.75H2.25V19.25H10.5C10.9142 19.25 11.25 19.5858 11.25 20C11.25 20.4142 10.9142 20.75 10.5 20.75H1.5C1.08579 20.75 0.75 20.4142 0.75 20V4C0.75 3.58579 1.08579 3.25 1.5 3.25H8.5C8.69891 3.25 8.88962 3.32907 9.03027 3.46973L11.8105 6.25H22.5C22.9142 6.25 23.25 6.58579 23.25 7V12C23.25 12.4142 22.9142 12.75 22.5 12.75C22.0858 12.75 21.75 12.4142 21.75 12Z" fill="black"/>
</svg>
